#!OML:ASF H:\Punching\Project 1\Capture day 1\Session 1\female.ASF
:FULLY-SPECIFIED
:DEGREES
1301
root -0.175984 15.7146 6.13713 14.1781 -5.7365 1.54367
lowerback -2.70941 -1.08703 1.96067
upperback -6.64403 -1.47956 -0.486563
thorax -5.42288 -0.860551 -1.5691
lowerneck -8.32661 7.73357 12.8918
upperneck 24.3656 11.2054 -10.4178
head 10.4851 5.31244 -4.51253
rclavicle -5.63508e-015 -8.34896e-015
rhumerus -50.6946 13.1026 -90.2519
rradius 61.7948
rwrist -14.0507
rhand -10.9537 -11.7595
rfingers 7.12502
rthumb 15.0651 -41.1913
lclavicle -5.63508e-015 -8.34896e-015
lhumerus -58.0352 -1.08988 80.0932
lradius 54.2392
lwrist 5.32912
lhand -12.2701 16.8681
lfingers 7.12502
lthumb 13.7967 46.3906
rfemur -18.6349 5.09429 17.7823
rtibia 29.8286
rfoot -22.1704 -20.5578
rtoes 1.48763
lfemur -14.8764 -2.61349 -15.8146
ltibia 32.6634
lfoot -16.538 10.7754
ltoes -18.2533
1302
root -0.171724 15.7109 6.12168 14.2534 -5.59469 1.53823
lowerback -2.8744 -1.0653 1.94983
upperback -6.67729 -1.45199 -0.455608
thorax -5.36181 -0.845087 -1.53457
lowerneck -8.3647 7.6691 12.9085
upperneck 24.4213 11.0811 -10.3062
head 10.49 5.26702 -4.49207
rclavicle -8.83194e-015 -6.26172e-015
rhumerus -50.9604 12.1833 -90.0519
rradius 59.9418
rwrist -15.2019
rhand -11.6865 -12.4686
rfingers 7.12502
rthumb 14.3591 -41.952
lclavicle -8.83194e-015 -6.26172e-015
lhumerus -58.3098 -0.0641441 79.8433
lradius 52.3017
lwrist 6.7847
lhand -13.6324 17.5319
lfingers 7.12502
lthumb 12.4835 47.1391
rfemur -18.8365 5.11737 17.7789
rtibia 30.0127
rfoot -22.2734 -20.6249
rtoes 1.72036
lfemur -13.8603 -3.1034 -15.9806
ltibia 31.2087
lfoot -16.8861 11.6022
ltoes -18.3667
1303
root -0.166101 15.7062 6.10758 14.3304 -5.46487 1.52684
lowerback -3.03778 -1.03537 1.93666
upperback -6.70732 -1.41333 -0.422898
thorax -5.29776 -0.823839 -1.49702
lowerneck -8.3986 7.60025 12.9076
upperneck 24.4614 10.9482 -10.1775
head 10.4852 5.21802 -4.46345
rclavicle 8.63626e-015 7.7526e-015
rhumerus -51.2676 11.3212 -89.8517
rradius 58.3052
rwrist -16.2491
rhand -12.2602 -13.1183
rfingers 7.12502
rthumb 13.8063 -42.6402
lclavicle 8.63626e-015 7.7526e-015
lhumerus -58.6161 0.777131 79.7448
lradius 50.599
lwrist 8.16295
lhand -14.5954 18.118
lfingers 7.12502
lthumb 11.5549 47.7795
rfemur -19.0486 5.14073 17.7745
rtibia 30.2209
rfoot -22.3922 -20.6798
rtoes 1.95513
lfemur -12.889 -3.63967 -16.1333
ltibia 29.5912
lfoot -17.2599 12.4805
ltoes -18.0908
1304
root -0.159187 15.7003 6.09466 14.4043 -5.34104 1.51285
lowerback -3.19444 -1.00088 1.91667
upperback -6.73416 -1.36821 -0.384649
thorax -5.23364 -0.798805 -1.44977
lowerneck -8.43038 7.52463 12.8837
upperneck 24.4866 10.8056 -10.0369
head 10.4711 5.16381 -4.42784
rclavicle -2.53373e-014 1.70955e-014
rhumerus -51.6221 10.5266 -89.6512
rradius 56.8712
rwrist -17.0715
rhand -12.5903 -13.651
rfingers 7.12502
rthumb 13.4881 -43.1942
lclavicle -2.53373e-014 1.70955e-014
lhumerus -58.9508 1.43302 79.8135
lradius 49.0924
lwrist 9.23483
lhand -15.0395 18.5648
lfingers 7.12502
lthumb 11.1266 48.2498
rfemur -19.2671 5.15156 17.7679
rtibia 30.456
rfoot -22.5261 -20.7189
rtoes 2.18087
lfemur -11.9725 -4.21698 -16.277
ltibia 27.8541
lfoot -17.6311 13.4014
ltoes -17.3577
